<svg width="1000" height="500" xmlns="http://www.w3.org/2000/svg">
 <!-- Created with Method Draw - http://github.com/duopixel/Method-Draw/ -->

 <g>
  <title>background</title>
  <rect fill="none" id="canvas_background" height="502" width="1002" y="-1" x="-1"/>
  <g display="none" overflow="visible" y="0" x="0" height="100%" width="100%" id="canvasGrid">
   <rect fill="url(#gridpattern)" stroke-width="0" y="0" x="0" height="100%" width="100%"/>
  </g>
 </g>
 <g>
  <title>Layer 1</title>
  <rect stroke="#000" rx="100" id="svg_2" height="134.770038" width="995.56529" y="253.677439" x="1.364433" stroke-width="0" fill="#A0D58A"/>
  <ellipse ry="55.625976" rx="125.002193" id="svg_5" cy="393.693928" cx="203.744802" stroke-opacity="null" stroke-width="0" stroke="#000" fill="#A0D58A"/>
  <ellipse ry="55.625976" rx="125.002193" id="svg_9" cy="398.694015" cx="770.004751" stroke-opacity="null" stroke-width="0" stroke="#000" fill="#A0D58A"/>
  <ellipse ry="55.625976" rx="125.002193" id="svg_10" cy="393.693928" cx="203.744802" stroke-opacity="null" stroke-width="0" stroke="#000" fill="#A0D58A"/>
  <ellipse stroke="#000" ry="68.751203" rx="138.752437" id="svg_11" cy="413.069266" cx="382.497945" stroke-opacity="null" stroke-width="0" fill="#A0D58A"/>
  <ellipse stroke="#000" ry="68.751203" rx="138.752437" id="svg_12" cy="380.568696" cx="543.750768" stroke-opacity="null" stroke-width="0" fill="#A0D58A"/>
  <path d="m516.250305,169.314987c0,0 0,1.250031 0,2.500046c0,1.250031 0,5.000092 0,7.500137c0,1.250015 1.25,6.250107 1.25,10.000168c0,1.250031 1.638489,6.350418 2.500061,10.000183c0.642151,2.720352 1.25,6.250107 1.25,8.750153c0,1.250015 0,3.750061 0,5.000092c0,1.250015 0,2.500031 0,3.750061c0,1.250015 0,3.750061 0,5.000092c0,2.500031 1.767822,6.982361 0,8.750153c-0.883911,0.883881 -1.857849,3.529724 -2.500061,6.250107c-0.287231,1.216568 -1.25,3.750061 -1.25,6.250107c0,1.250015 -0.649292,5.048523 -1.25,8.750153c-0.633179,3.901886 -2.310608,6.306488 -5.000122,15.000275c-1.168243,3.776337 -2.500031,5.000092 -2.500031,5.000092c-1.250031,2.500031 -1.61615,2.86618 -2.500031,3.750061c-0.883881,0.883881 0,1.25 0,-1.250031l-1.250031,-2.500031l0,-2.500061l0,-1.250031" id="svg_13" fill-opacity="null" stroke-opacity="null" stroke-width="0" stroke="#000" fill="none"/>
  <path id="svg_26" d="m762.171623,293.533998c2.843377,-14.591949 6.735178,-26.949817 10.426798,-33.108788c3.954976,-6.598355 2.200289,-9.460511 -1.879592,-3.065901c-1.716457,2.690268 -2.206871,0.736838 -2.206871,-8.790476c0,-22.731414 7.518125,-36.796952 25.607134,-47.907907c15.305984,-9.401561 26.590404,-19.974224 31.269168,-29.296931l3.812613,-7.596894l0,13.217846c0,16.344065 -3.235231,41.035988 -6.81634,52.023648c-3.798916,11.655989 -16.820164,33.171222 -23.209902,38.350144c-5.724639,4.63989 -17.950632,6.005847 -24.484852,2.735599c-3.25627,-1.629678 -4.289708,-0.384521 -5.976937,7.201427c-1.121962,5.044452 -2.039936,12.220972 -2.039936,15.947763c0,4.23094 -1.082669,6.775967 -2.882519,6.775967c-2.137681,0 -2.555964,-1.675812 -1.618761,-6.485496l-0.000003,0z" stroke-opacity="null" stroke-width="0" stroke="#000" fill="#A0D58A"/>
  <path id="svg_27" d="m762.171623,293.533998c2.843377,-14.591949 6.735178,-26.949817 10.426798,-33.108787c3.954976,-6.598356 2.200289,-9.460511 -1.879592,-3.065901c-1.716456,2.690268 -2.206871,0.736838 -2.206871,-8.790476c0,-22.731415 7.518125,-36.796952 25.607134,-47.907908c15.305984,-9.401561 26.590404,-19.974223 31.269167,-29.296931l3.812613,-7.596894l0,13.217846c0,16.344065 -3.235231,41.035988 -6.81634,52.023648c-3.798915,11.655989 -16.820164,33.171222 -23.209902,38.350144c-5.724638,4.63989 -17.950632,6.005847 -24.484851,2.735599c-3.256271,-1.629678 -4.289709,-0.384522 -5.976938,7.201427c-1.121962,5.044452 -2.039936,12.220972 -2.039936,15.947762c0,4.230941 -1.082668,6.775967 -2.882518,6.775967c-2.137682,0 -2.555964,-1.675812 -1.618761,-6.485496l-0.000003,0z" stroke-opacity="null" stroke-width="0" stroke="#000" fill="#A0D58A"/>
  <path id="svg_28" d="m803.422348,308.534261c2.843377,-14.591949 6.735178,-26.949817 10.426798,-33.108787c3.954976,-6.598356 2.200289,-9.460511 -1.879592,-3.065901c-1.716456,2.690268 -2.206871,0.736838 -2.206871,-8.790476c0,-22.731415 7.518125,-36.796952 25.607134,-47.907908c15.305984,-9.401561 26.590404,-19.974223 31.269167,-29.296931l3.812613,-7.596894l0,13.217846c0,16.344065 -3.235231,41.035988 -6.81634,52.023648c-3.798915,11.655989 -16.820164,33.171222 -23.209902,38.350144c-5.724638,4.63989 -17.950632,6.005847 -24.484851,2.735599c-3.256271,-1.629678 -4.289709,-0.384522 -5.976938,7.201427c-1.121962,5.044452 -2.039936,12.220972 -2.039936,15.947762c0,4.230941 -1.082668,6.775967 -2.882518,6.775967c-2.137682,0 -2.555964,-1.675812 -1.618761,-6.485496l-0.000003,0z" stroke-opacity="null" stroke-width="0" stroke="#000" fill="#A0D58A"/>
  <path transform="rotate(-40.7850456237793 574.8214721679689,227.51821899414057) " stroke="#000" id="svg_29" d="m538.46139,288.593411c3.106653,-14.458078 7.358806,-26.702572 11.392242,-32.805037c4.321177,-6.537821 2.404019,-9.373718 -2.053628,-3.037774c-1.875387,2.665587 -2.411211,0.730078 -2.411211,-8.70983c0,-22.52287 8.214248,-36.459366 27.978165,-47.468387c16.723205,-9.315308 29.052479,-19.790974 34.16446,-29.028153l4.165633,-7.527198l0,13.096582c0,16.19412 -3.534789,40.659512 -7.447483,51.546368c-4.150666,11.549054 -18.377587,32.8669 -25.358967,37.998309c-6.254697,4.597322 -19.612728,5.950748 -26.751967,2.710502c-3.557778,-1.614727 -4.686904,-0.380994 -6.530358,7.135359c-1.225847,4.998173 -2.228819,12.108853 -2.228819,15.801453c0,4.192125 -1.182915,6.713802 -3.149418,6.713802c-2.335616,0 -2.792627,-1.660438 -1.768646,-6.425996l-0.000003,0z" stroke-opacity="null" stroke-width="0" fill="#A0D58A"/>
  <path stroke="#000" transform="rotate(-100.674072265625 739.8243408203125,233.76835632324222) " id="svg_30" d="m695.504719,274.257208c3.786732,-9.584758 8.969726,-17.702054 13.886125,-21.747589c5.267128,-4.334147 2.930284,-6.21416 -2.50319,-2.013844c-2.285929,1.767109 -2.939051,0.483994 -2.939051,-5.774046c0,-14.931186 10.012434,-24.170169 34.102881,-31.468428c20.384091,-6.175439 35.412374,-13.120118 41.643423,-19.243762l5.077534,-4.990039l0,8.682175c0,10.73564 -4.308593,26.95459 -9.077816,34.171862c-5.059291,7.656265 -22.400635,21.788599 -30.910313,25.190387c-7.623916,3.047723 -23.906162,3.944956 -32.608255,1.796885c-4.336613,-1.070458 -5.712917,-0.252575 -7.959922,4.730275c-1.494199,3.313461 -2.716731,8.027375 -2.716731,10.475326c0,2.779105 -1.441868,4.450811 -3.838859,4.450811c-2.846907,0 -3.403963,-1.100762 -2.155821,-4.260014l-0.000005,0z" stroke-opacity="null" stroke-width="0" fill="#A0D58A"/>
  <path stroke="#000" transform="rotate(-100.674072265625 739.8243408203125,233.76835632324222) " id="svg_31" d="m695.504719,274.257208c3.786732,-9.584758 8.969726,-17.702054 13.886125,-21.747589c5.267129,-4.334146 2.930284,-6.214159 -2.50319,-2.013844c-2.285929,1.767109 -2.93905,0.483994 -2.93905,-5.774046c0,-14.931187 10.012433,-24.170169 34.102881,-31.468428c20.384091,-6.175439 35.412374,-13.120118 41.643423,-19.243762l5.077534,-4.990038l0,8.682175c0,10.735639 -4.308593,26.95459 -9.077816,34.171861c-5.059291,7.656266 -22.400635,21.7886 -30.910313,25.190387c-7.623917,3.047723 -23.906162,3.944956 -32.608256,1.796885c-4.336613,-1.070458 -5.712917,-0.252574 -7.959922,4.730275c-1.494199,3.313461 -2.716731,8.027376 -2.716731,10.475327c0,2.779105 -1.441868,4.450811 -3.838859,4.450811c-2.846907,0 -3.403963,-1.100761 -2.155821,-4.260014l-0.000005,0z" stroke-opacity="null" stroke-width="0" fill="#A0D58A"/>
  <path transform="rotate(-40.7850456237793 534.8207397460939,231.26828002929682) " stroke="#000" id="svg_32" d="m498.460688,292.343477c3.106653,-14.458078 7.358806,-26.702572 11.392242,-32.805038c4.321178,-6.53782 2.40402,-9.373717 -2.053628,-3.037773c-1.875387,2.665587 -2.411211,0.730078 -2.411211,-8.70983c0,-22.52287 8.214248,-36.459366 27.978165,-47.468387c16.723205,-9.315308 29.052479,-19.790974 34.164461,-29.028152l4.165632,-7.527198l0,13.096581c0,16.19412 -3.534789,40.659512 -7.447482,51.546368c-4.150667,11.549054 -18.377587,32.8669 -25.358967,37.998309c-6.254697,4.597323 -19.612728,5.950748 -26.751967,2.710502c-3.557778,-1.614727 -4.686905,-0.380994 -6.530359,7.135359c-1.225847,4.998173 -2.228819,12.108853 -2.228819,15.801453c0,4.192125 -1.182915,6.713802 -3.149417,6.713802c-2.335616,0 -2.792628,-1.660438 -1.768647,-6.425996l-0.000003,0z" stroke-opacity="null" stroke-width="0" fill="#A0D58A"/>
  <path transform="rotate(-40.7850456237793 496.07006835937494,251.26863098144537) " stroke="#000" id="svg_33" d="m459.710006,312.343828c3.106653,-14.458078 7.358806,-26.702572 11.392242,-32.805038c4.321178,-6.53782 2.40402,-9.373717 -2.053628,-3.037773c-1.875387,2.665587 -2.411211,0.730078 -2.411211,-8.70983c0,-22.52287 8.214248,-36.459366 27.978165,-47.468387c16.723205,-9.315308 29.052479,-19.790974 34.164461,-29.028152l4.165632,-7.527198l0,13.096581c0,16.19412 -3.534789,40.659512 -7.447482,51.546368c-4.150667,11.549054 -18.377587,32.8669 -25.358967,37.998309c-6.254697,4.597323 -19.612728,5.950748 -26.751967,2.710502c-3.557778,-1.614727 -4.686905,-0.380994 -6.530359,7.135359c-1.225847,4.998173 -2.228819,12.108853 -2.228819,15.801453c0,4.192125 -1.182915,6.713802 -3.149417,6.713802c-2.335616,0 -2.792628,-1.660438 -1.768647,-6.425996l-0.000003,0z" stroke-opacity="null" stroke-width="0" fill="#A0D58A"/>
  <path transform="rotate(-40.7850456237793 331.0671691894533,222.5181274414063) " stroke="#000" id="svg_34" d="m294.707107,283.593323c3.106653,-14.458078 7.358806,-26.702572 11.392242,-32.805038c4.321178,-6.53782 2.40402,-9.373717 -2.053628,-3.037773c-1.875387,2.665587 -2.411211,0.730078 -2.411211,-8.70983c0,-22.52287 8.214248,-36.459366 27.978165,-47.468387c16.723205,-9.315308 29.052479,-19.790974 34.164461,-29.028152l4.165632,-7.527198l0,13.096581c0,16.19412 -3.534789,40.659512 -7.447482,51.546368c-4.150667,11.549054 -18.377587,32.8669 -25.358967,37.998309c-6.254697,4.597323 -19.612728,5.950748 -26.751967,2.710502c-3.557778,-1.614727 -4.686905,-0.380994 -6.530359,7.135359c-1.225847,4.998173 -2.228819,12.108853 -2.228819,15.801453c0,4.192125 -1.182915,6.713802 -3.149417,6.713802c-2.335616,0 -2.792628,-1.660438 -1.768647,-6.425996l-0.000003,0z" stroke-opacity="null" stroke-width="0" fill="#A0D58A"/>
  <path transform="rotate(-40.7850456237793 297.3165588378906,266.2688903808593) " stroke="#000" id="svg_35" d="m260.956512,327.344091c3.106653,-14.458078 7.358806,-26.702572 11.392242,-32.805038c4.321178,-6.53782 2.40402,-9.373717 -2.053628,-3.037773c-1.875387,2.665587 -2.411211,0.730078 -2.411211,-8.70983c0,-22.52287 8.214248,-36.459366 27.978165,-47.468387c16.723205,-9.315308 29.052479,-19.790974 34.164461,-29.028152l4.165632,-7.527198l0,13.096581c0,16.19412 -3.534789,40.659512 -7.447482,51.546368c-4.150667,11.549054 -18.377587,32.8669 -25.358967,37.998309c-6.254697,4.597323 -19.612728,5.950748 -26.751967,2.710502c-3.557778,-1.614727 -4.686905,-0.380994 -6.530359,7.135359c-1.225847,4.998173 -2.228819,12.108853 -2.228819,15.801453c0,4.192125 -1.182915,6.713802 -3.149417,6.713802c-2.335616,0 -2.792628,-1.660438 -1.768647,-6.425996l-0.000003,0z" stroke-opacity="null" stroke-width="0" fill="#A0D58A"/>
  <path transform="rotate(-40.7850456237793 368.56781005859375,237.51837158203114) " stroke="#000" id="svg_36" d="m332.207762,298.593585c3.106653,-14.458078 7.358806,-26.702572 11.392242,-32.805038c4.321178,-6.53782 2.40402,-9.373717 -2.053628,-3.037773c-1.875387,2.665587 -2.411211,0.730078 -2.411211,-8.70983c0,-22.52287 8.214248,-36.459366 27.978165,-47.468387c16.723205,-9.315308 29.052479,-19.790974 34.164461,-29.028152l4.165632,-7.527198l0,13.096581c0,16.19412 -3.534789,40.659512 -7.447482,51.546368c-4.150667,11.549054 -18.377587,32.8669 -25.358967,37.998309c-6.254697,4.597323 -19.612728,5.950748 -26.751967,2.710502c-3.557778,-1.614727 -4.686905,-0.380994 -6.530359,7.135359c-1.225847,4.998173 -2.228819,12.108853 -2.228819,15.801453c0,4.192125 -1.182915,6.713802 -3.149417,6.713802c-2.335616,0 -2.792628,-1.660438 -1.768647,-6.425996l-0.000003,0z" stroke-opacity="null" stroke-width="0" fill="#A0D58A"/>
  <path stroke="#000" transform="rotate(-40.7850456237793 196.68978881835946,253.76869201660156) " id="svg_37" d="m132.671087,291.453812c5.469851,-8.921044 12.956571,-16.476244 20.058198,-20.241639c7.608252,-4.03402 4.232732,-5.783849 -3.615801,-1.874392c-3.301974,1.644743 -4.245393,0.450479 -4.245393,-5.374212c0,-13.897249 14.462738,-22.496463 49.260855,-29.289341c29.444367,-5.747809 51.152388,-12.211592 60.153,-17.911193l7.334384,-4.644495l0,8.080962c0,9.992231 -6.223665,25.088072 -13.112702,31.805571c-7.308035,7.126094 -32.35722,20.279809 -44.649261,23.446034c-11.012578,2.836679 -34.53192,3.67178 -47.101901,1.672457c-6.264142,-0.996332 -8.252183,-0.235084 -11.497933,4.402719c-2.158336,3.084014 -3.924258,7.471506 -3.924258,9.749945c0,2.58666 -2.082746,4.142606 -5.545145,4.142606c-4.112294,0 -4.91695,-1.024537 -3.114038,-3.965022l-0.000005,0z" stroke-opacity="null" stroke-width="0" fill="#A0D58A"/>
  <path stroke="#000" transform="rotate(-40.7850456237793 157.93911743164057,290.0193176269531) " id="svg_38" d="m93.920408,327.704449c5.46985,-8.921044 12.956571,-16.476244 20.058198,-20.241639c7.608252,-4.03402 4.232732,-5.783849 -3.615801,-1.874392c-3.301974,1.644743 -4.245393,0.450479 -4.245393,-5.374212c0,-13.897249 14.462738,-22.496463 49.260854,-29.289341c29.444368,-5.747809 51.152388,-12.211592 60.153,-17.911193l7.334383,-4.644494l0,8.080962c0,9.992231 -6.223665,25.088071 -13.112701,31.80557c-7.308035,7.126094 -32.35722,20.279809 -44.649261,23.446034c-11.012578,2.836679 -34.531919,3.671781 -47.101901,1.672457c-6.264141,-0.996332 -8.252183,-0.235084 -11.497933,4.402719c-2.158335,3.084014 -3.924257,7.471505 -3.924257,9.749944c0,2.58666 -2.082746,4.142607 -5.545145,4.142607c-4.112294,0 -4.91695,-1.024538 -3.114038,-3.965022l-0.000005,0z" stroke-opacity="null" stroke-width="0" fill="#A0D58A"/>
  <path stroke="#000" transform="rotate(-40.7850456237793 143.56387329101568,261.8938293457032) " id="svg_39" d="m109.216658,320.828094c2.934675,-13.951265 6.951439,-25.766542 10.761592,-31.655093c4.081967,-6.308643 2.270939,-9.045131 -1.939944,-2.931287c-1.77157,2.572148 -2.277731,0.704486 -2.277731,-8.404516c0,-21.733354 7.759525,-35.181323 26.429354,-45.804434c15.797445,-8.98877 27.444197,-19.097222 32.273191,-28.010601l3.935031,-7.263339l0,12.637495c0,15.626452 -3.339111,39.234235 -7.035205,49.739464c-3.920895,11.144215 -17.360244,31.714786 -23.95515,36.666319c-5.908451,4.436169 -18.52701,5.742152 -25.271036,2.615489c-3.360827,-1.558124 -4.427448,-0.367639 -6.168853,6.885237c-1.157986,4.822967 -2.105436,11.684389 -2.105436,15.247549c0,4.045175 -1.117432,6.478458 -2.975072,6.478458c-2.206321,0 -2.638034,-1.602234 -1.670739,-6.20074l-0.000003,0z" stroke-opacity="null" stroke-width="0" fill="#A0D58A"/>
  <path id="svg_40" d="m639.468185,503.226864c0.048856,-0.159967 0.115727,-0.295443 0.179157,-0.362962c0.067956,-0.072336 0.037806,-0.103713 -0.032296,-0.033611c-0.029493,0.029493 -0.037919,0.008078 -0.037919,-0.096367c0,-0.249198 0.129179,-0.403395 0.439992,-0.525201c0.262994,-0.103067 0.456887,-0.218972 0.537279,-0.321174l0.06551,-0.083283l0,0.144903c0,0.179175 -0.055589,0.449866 -0.117121,0.57032c-0.065274,0.127781 -0.289011,0.363647 -0.398802,0.420422c-0.098363,0.050866 -0.308435,0.06584 -0.420709,0.02999c-0.055951,-0.017866 -0.073707,-0.004215 -0.102698,0.078947c-0.019278,0.055301 -0.035051,0.133975 -0.035051,0.174831c0,0.046383 -0.018603,0.074283 -0.049529,0.074283c-0.03673,0 -0.043918,-0.018371 -0.027814,-0.071099l0,0z" fill-opacity="null" stroke-opacity="null" stroke-width="0" stroke="#000" fill="#A0D58A"/>
 </g>
</svg>